0
SECTION
2
HEADER
0
ENDSEC
0
SECTION
2
ENTITIES
0
LINE
8
WALLS
10
1780.000
20
-320.000
30
0
11
7430.000
21
-320.000
31
0
0
LINE
8
WALLS
10
1740.000
20
-340.000
30
0
11
7470.000
21
-340.000
31
0
0
LINE
8
WALLS
10
1750.000
20
-6140.000
30
0
11
7420.000
21
-6140.000
31
0
0
LINE
8
WALLS
10
1730.000
20
-6380.000
30
0
11
7420.000
21
-6380.000
31
0
0
LINE
8
WALLS
10
1610.000
20
-5230.000
30
0
11
7470.000
21
-5230.000
31
0
0
LINE
8
WALLS
10
1730.000
20
-6120.000
30
0
11
7420.000
21
-6120.000
31
0
0
LINE
8
WALLS
10
1730.000
20
-5440.000
30
0
11
7470.000
21
-5440.000
31
0
0
LINE
8
WALLS
10
7580.000
20
-6000.000
30
0
11
7580.000
21
-800.000
31
0
0
LINE
8
WALLS
10
7600.000
20
-5970.000
30
0
11
7600.000
21
-830.000
31
0
0
LINE
8
WALLS
10
7860.000
20
-5970.000
30
0
11
7860.000
21
-830.000
31
0
0
LINE
8
WALLS
10
1730.000
20
-5420.000
30
0
11
7480.000
21
-5420.000
31
0
0
LINE
8
WALLS
10
1730.000
20
-5170.000
30
0
11
7590.000
21
-5170.000
31
0
0
LINE
8
WALLS
10
1740.000
20
-610.000
30
0
11
7480.000
21
-610.000
31
0
0
LINE
8
WALLS
10
7840.000
20
-6000.000
30
0
11
7840.000
21
-800.000
31
0
0
LINE
8
WALLS
10
1750.000
20
-6400.000
30
0
11
7410.000
21
-6400.000
31
0
0
LINE
8
WALLS
10
1770.000
20
-590.000
30
0
11
7460.000
21
-590.000
31
0
0
LINE
8
WALLS
10
3150.000
20
-6000.000
30
0
11
7590.000
21
-6000.000
31
0
0
LINE
8
WALLS
10
1630.000
20
-6020.000
30
0
11
1630.000
21
-1590.000
31
0
0
LINE
8
WALLS
10
1370.000
20
-6020.000
30
0
11
1370.000
21
-1590.000
31
0
0
LINE
8
WALLS
10
3360.000
20
-5150.000
30
0
11
5280.000
21
-5150.000
31
0
0
LINE
8
WALLS
10
3360.000
20
-5210.000
30
0
11
5280.000
21
-5210.000
31
0
0
LINE
8
WALLS
10
7420.000
20
-5940.000
30
0
11
7420.000
21
-1610.000
31
0
0
LINE
8
WALLS
10
1350.000
20
-5990.000
30
0
11
1350.000
21
-1620.000
31
0
0
LINE
8
WALLS
10
1610.000
20
-5990.000
30
0
11
1610.000
21
-1620.000
31
0
0
LINE
8
WALLS
10
3150.000
20
-5950.000
30
0
11
7470.000
21
-5950.000
31
0
0
LINE
8
WALLS
10
1730.000
20
-5710.000
30
0
11
1730.000
21
-2870.000
31
0
0
LINE
8
WALLS
10
1790.000
20
-5660.000
30
0
11
3200.000
21
-5660.000
31
0
0
LINE
8
WALLS
10
7480.000
20
-2710.000
30
0
11
7480.000
21
-1780.000
31
0
0
LINE
8
WALLS
10
3590.000
20
-3560.000
30
0
11
5500.000
21
-3560.000
31
0
0
LINE
8
WALLS
10
3470.000
20
-720.000
30
0
11
5440.000
21
-720.000
31
0
0
LINE
8
WALLS
10
3200.000
20
-5930.000
30
0
11
3200.000
21
-3840.000
31
0
0
LINE
8
WALLS
10
5450.000
20
-3010.000
30
0
11
5450.000
21
-600.000
31
0
0
LINE
8
WALLS
10
3470.000
20
-1660.000
30
0
11
5580.000
21
-1660.000
31
0
0
LINE
8
WALLS
10
5330.000
20
-1280.000
30
0
11
6160.000
21
-1280.000
31
0
0
LINE
8
WALLS
10
3150.000
20
-5810.000
30
0
11
5470.000
21
-5810.000
31
0
0
LINE
8
WALLS
10
5590.000
20
-5740.000
30
0
11
7260.000
21
-5740.000
31
0
0
LINE
8
WALLS
10
3150.000
20
-5990.000
30
0
11
3150.000
21
-3840.000
31
0
0
LINE
8
WALLS
10
3530.000
20
-3130.000
30
0
11
3530.000
21
-1040.000
31
0
0
LINE
8
WALLS
10
5330.000
20
-5680.000
30
0
11
7410.000
21
-5680.000
31
0
0
LINE
8
WALLS
10
6570.000
20
-1610.000
30
0
11
7470.000
21
-1610.000
31
0
0
LINE
8
WALLS
10
3230.000
20
-5830.000
30
0
11
5470.000
21
-5830.000
31
0
0
LINE
8
WALLS
10
1780.000
20
-5130.000
30
0
11
1780.000
21
-3930.000
31
0
0
LINE
8
WALLS
10
3350.000
20
-5630.000
30
0
11
4430.000
21
-5630.000
31
0
0
LINE
8
WALLS
10
3470.000
20
-1450.000
30
0
11
4950.000
21
-1450.000
31
0
0
LINE
8
WALLS
10
5390.000
20
-3010.000
30
0
11
5390.000
21
-780.000
31
0
0
LINE
8
WALLS
10
5590.000
20
-5720.000
30
0
11
7260.000
21
-5720.000
31
0
0
LINE
8
WALLS
10
4600.000
20
-1600.000
30
0
11
5350.000
21
-1600.000
31
0
0
LINE
8
WALLS
10
4620.000
20
-1620.000
30
0
11
5340.000
21
-1620.000
31
0
0
LINE
8
WALLS
10
3700.000
20
-3610.000
30
0
11
5050.000
21
-3610.000
31
0
0
LINE
8
WALLS
10
3750.000
20
-1080.000
30
0
11
5370.000
21
-1080.000
31
0
0
LINE
8
WALLS
10
5710.000
20
-2960.000
30
0
11
6830.000
21
-2960.000
31
0
0
LINE
8
WALLS
10
3470.000
20
-880.000
30
0
11
5370.000
21
-880.000
31
0
0
LINE
8
WALLS
10
3470.000
20
-3120.000
30
0
11
3470.000
21
-1380.000
31
0
0
LINE
8
WALLS
10
6170.000
20
-3610.000
30
0
11
7040.000
21
-3590.000
31
0
0
LINE
8
WALLS
10
3770.000
20
-770.000
30
0
11
4500.000
21
-770.000
31
0
0
LINE
8
WALLS
10
5470.000
20
-5160.000
30
0
11
5470.000
21
-3550.000
31
0
0
LINE
8
WALLS
10
3350.000
20
-5610.000
30
0
11
4190.000
21
-5610.000
31
0
0
LINE
8
WALLS
10
3470.000
20
-860.000
30
0
11
5370.000
21
-860.000
31
0
0
LINE
8
WALLS
10
3700.000
20
-3620.000
30
0
11
4480.000
21
-3620.000
31
0
0
LINE
8
WALLS
10
3720.000
20
-3720.000
30
0
11
4810.000
21
-3660.000
31
0
0
LINE
8
WALLS
10
5410.000
20
-5160.000
30
0
11
5410.000
21
-3580.000
31
0
0
LINE
8
WALLS
10
5970.000
20
-3020.000
30
0
11
7260.000
21
-3020.000
31
0
0
LINE
8
WALLS
10
1740.000
20
-5710.000
30
0
11
3130.000
21
-5710.000
31
0
0
LINE
8
WALLS
10
3520.000
20
-1470.000
30
0
11
5190.000
21
-1470.000
31
0
0
LINE
8
WALLS
10
6780.000
20
-2940.000
30
0
11
6780.000
21
-1290.000
31
0
0
LINE
8
WALLS
10
2570.000
20
-3580.000
30
0
11
2570.000
21
-2330.000
31
0
0
LINE
8
WALLS
10
3690.000
20
-1060.000
30
0
11
5370.000
21
-1060.000
31
0
0
LINE
8
WALLS
10
5460.000
20
-1340.000
30
0
11
6720.000
21
-1340.000
31
0
0
LINE
8
WALLS
10
6720.000
20
-3030.000
30
0
11
6720.000
21
-1820.000
31
0
0
LINE
8
WALLS
10
4370.000
20
-3710.000
30
0
11
5520.000
21
-3630.000
31
0
0
LINE
8
WALLS
10
4340.000
20
-5930.000
30
0
11
4340.000
21
-5250.000
31
0
0
LINE
8
WALLS
10
4680.000
20
-3580.000
30
0
11
6050.000
21
-3560.000
31
0
0
LINE
8
WALLS
10
4160.000
20
-5930.000
30
0
11
4160.000
21
-5250.000
31
0
0
LINE
8
WALLS
10
2630.000
20
-3580.000
30
0
11
2630.000
21
-2330.000
31
0
0
LINE
8
WALLS
10
1790.000
20
-3160.000
30
0
11
2560.000
21
-3160.000
31
0
0
LINE
8
WALLS
10
2830.000
20
-3120.000
30
0
11
3520.000
21
-3120.000
31
0
0
LINE
8
WALLS
10
4360.000
20
-3660.000
30
0
11
5310.000
21
-3630.000
31
0
0
LINE
8
WALLS
10
1790.000
20
-2920.000
30
0
11
2560.000
21
-2920.000
31
0
0
LINE
8
WALLS
10
5150.000
20
-5930.000
30
0
11
5150.000
21
-5250.000
31
0
0
LINE
8
WALLS
10
4140.000
20
-1590.000
30
0
11
4140.000
21
-790.000
31
0
0
LINE
8
WALLS
10
1790.000
20
-3890.000
30
0
11
2930.000
21
-3890.000
31
0
0
LINE
8
WALLS
10
5330.000
20
-1580.000
30
0
11
5330.000
21
-770.000
31
0
0
LINE
8
WALLS
10
3940.000
20
-1590.000
30
0
11
3940.000
21
-800.000
31
0
0
LINE
8
WALLS
10
3700.000
20
-3580.000
30
0
11
4580.000
21
-3600.000
31
0
0
LINE
8
WALLS
10
5130.000
20
-1580.000
30
0
11
5130.000
21
-770.000
31
0
0
LINE
8
WALLS
10
3600.000
20
-3660.000
30
0
11
4830.000
21
-3620.000
31
0
0
LINE
8
WALLS
10
4930.000
20
-1580.000
30
0
11
4930.000
21
-770.000
31
0
0
LINE
8
WALLS
10
2680.000
20
-2480.000
30
0
11
2680.000
21
-1520.000
31
0
0
LINE
8
WALLS
10
1790.000
20
-3180.000
30
0
11
2560.000
21
-3180.000
31
0
0
LINE
8
WALLS
10
3010.000
20
-3090.000
30
0
11
3020.000
21
-2420.000
31
0
0
LINE
8
WALLS
10
3960.000
20
-1590.000
30
0
11
3960.000
21
-800.000
31
0
0
LINE
8
WALLS
10
4950.000
20
-1580.000
30
0
11
4950.000
21
-770.000
31
0
0
LINE
8
WALLS
10
5350.000
20
-1580.000
30
0
11
5350.000
21
-770.000
31
0
0
LINE
8
WALLS
10
4710.000
20
-3700.000
30
0
11
5510.000
21
-3700.000
31
0
0
LINE
8
WALLS
10
3950.000
20
-1260.000
30
0
11
4630.000
21
-1260.000
31
0
0
LINE
8
WALLS
10
4050.000
20
-1270.000
30
0
11
5300.000
21
-1270.000
31
0
0
LINE
8
WALLS
10
3370.000
20
-5930.000
30
0
11
3370.000
21
-5240.000
31
0
0
LINE
8
WALLS
10
7480.000
20
-4630.000
30
0
11
7480.000
21
-3840.000
31
0
0
LINE
8
WALLS
10
2730.000
20
-2370.000
30
0
11
2750.000
21
-1510.000
31
0
0
LINE
8
WALLS
10
4030.000
20
-1250.000
30
0
11
4740.000
21
-1250.000
31
0
0
LINE
8
WALLS
10
2640.000
20
-2480.000
30
0
11
3460.000
21
-2480.000
31
0
0
LINE
8
WALLS
10
5590.000
20
-5210.000
30
0
11
7260.000
21
-5210.000
31
0
0
LINE
8
WALLS
10
3350.000
20
-5930.000
30
0
11
3350.000
21
-5220.000
31
0
0
LINE
8
WALLS
10
1910.000
20
-5150.000
30
0
11
3010.000
21
-5150.000
31
0
0
LINE
8
WALLS
10
3600.000
20
-3570.000
30
0
11
4580.000
21
-3580.000
31
0
0
LINE
8
WALLS
10
2990.000
20
-1070.000
30
0
11
3690.000
21
-1070.000
31
0
0
LINE
8
WALLS
10
2990.000
20
-1130.000
30
0
11
3740.000
21
-1130.000
31
0
0
LWPOLYLINE
8
ROOMS
90
6
70
1
10
3210.000
20
-5240.000
10
3210.000
20
-5940.000
10
5410.000
20
-5940.000
10
5420.000
20
-5670.000
10
7410.000
20
-5670.000
10
7400.000
20
-5230.000
0
LWPOLYLINE
8
ROOMS
90
12
70
1
10
2160.000
20
-3910.000
10
1900.000
20
-4230.000
10
1850.000
20
-4160.000
10
1860.000
20
-4870.000
10
1880.000
20
-4790.000
10
2180.000
20
-5150.000
10
2790.000
20
-5150.000
10
2710.000
20
-5140.000
10
3130.000
20
-4740.000
10
3110.000
20
-4220.000
10
2690.000
20
-3910.000
10
2810.000
20
-3900.000
0
LWPOLYLINE
8
ROOMS
90
9
70
1
10
3530.000
20
-1140.000
10
3540.000
20
-1600.000
10
5380.000
20
-1600.000
10
5380.000
20
-780.000
10
4620.000
20
-780.000
10
4600.000
20
-1020.000
10
4540.000
20
-780.000
10
3760.000
20
-780.000
10
3760.000
20
-1120.000
0
LWPOLYLINE
8
ROOMS
90
12
70
1
10
2990.000
20
-1060.000
10
3460.000
20
-1060.000
10
3470.000
20
-710.000
10
5440.000
20
-710.000
10
5460.000
20
-1280.000
10
7480.000
20
-1610.000
10
7470.000
20
-6010.000
10
1720.000
20
-5710.000
10
1720.000
20
-2870.000
10
2560.000
20
-2860.000
10
2680.000
20
-2350.000
10
2400.000
20
-2280.000
0
LINE
8
DOORS
10
4480.000
20
-6480.000
30
0
11
4620.000
21
-6560.000
31
0
0
LINE
8
DOORS
10
4550.000
20
-6440.000
30
0
11
4650.000
21
-6540.000
31
0
0
LINE
8
DOORS
10
4360.000
20
-6200.000
30
0
11
4500.000
21
-6320.000
31
0
0
LINE
8
DOORS
10
6330.000
20
-6200.000
30
0
11
6550.000
21
-6330.000
31
0
0
LINE
8
DOORS
10
4360.000
20
-6200.000
30
0
11
4510.000
21
-6330.000
31
0
0
LINE
8
DOORS
10
4210.000
20
-6200.000
30
0
11
4290.000
21
-6330.000
31
0
0
LINE
8
DOORS
10
2430.000
20
-6200.000
30
0
11
2510.000
21
-6320.000
31
0
0
LINE
8
DOORS
10
2290.000
20
-6200.000
30
0
11
2380.000
21
-6330.000
31
0
0
LINE
8
DOORS
10
5150.000
20
-5610.000
30
0
11
5340.000
21
-5820.000
31
0
0
LINE
8
DOORS
10
4540.000
20
-5610.000
30
0
11
4940.000
21
-5820.000
31
0
0
LINE
8
DOORS
10
7660.000
20
-5590.000
30
0
11
7790.000
21
-5730.000
31
0
0
LINE
8
DOORS
10
4190.000
20
-5560.000
30
0
11
4300.000
21
-5650.000
31
0
0
LINE
8
DOORS
10
4060.000
20
-5560.000
30
0
11
4170.000
21
-5700.000
31
0
0
LINE
8
DOORS
10
4050.000
20
-5560.000
30
0
11
4130.000
21
-5650.000
31
0
0
LINE
8
DOORS
10
4180.000
20
-5560.000
30
0
11
4310.000
21
-5670.000
31
0
0
LINE
8
DOORS
10
4320.000
20
-5550.000
30
0
11
4440.000
21
-5700.000
31
0
0
LINE
8
DOORS
10
4050.000
20
-5550.000
30
0
11
4180.000
21
-5700.000
31
0
0
LINE
8
DOORS
10
7660.000
20
-5500.000
30
0
11
7790.000
21
-5580.000
31
0
0
LINE
8
DOORS
10
1430.000
20
-5470.000
30
0
11
1550.000
21
-5610.000
31
0
0
LINE
8
DOORS
10
1430.000
20
-5460.000
30
0
11
1550.000
21
-5610.000
31
0
0
LINE
8
DOORS
10
6740.000
20
-5440.000
30
0
11
7120.000
21
-5650.000
31
0
0
LINE
8
DOORS
10
6540.000
20
-5440.000
30
0
11
6750.000
21
-5640.000
31
0
0
LINE
8
DOORS
10
6340.000
20
-5440.000
30
0
11
6530.000
21
-5640.000
31
0
0
LINE
8
DOORS
10
6140.000
20
-5440.000
30
0
11
6330.000
21
-5640.000
31
0
0
LINE
8
DOORS
10
5150.000
20
-5440.000
30
0
11
5340.000
21
-5630.000
31
0
0
LINE
8
DOORS
10
4950.000
20
-5440.000
30
0
11
5140.000
21
-5820.000
31
0
0
LINE
8
DOORS
10
4750.000
20
-5440.000
30
0
11
4940.000
21
-5640.000
31
0
0
LINE
8
DOORS
10
4540.000
20
-5440.000
30
0
11
4770.000
21
-5650.000
31
0
0
LINE
8
DOORS
10
3960.000
20
-5440.000
30
0
11
4550.000
21
-5820.000
31
0
0
LINE
8
DOORS
10
3740.000
20
-5440.000
30
0
11
3950.000
21
-5820.000
31
0
0
LINE
8
DOORS
10
3570.000
20
-5440.000
30
0
11
3750.000
21
-5630.000
31
0
0
LINE
8
DOORS
10
3370.000
20
-5440.000
30
0
11
3770.000
21
-5820.000
31
0
0
LINE
8
DOORS
10
2500.000
20
-5400.000
30
0
11
2620.000
21
-5540.000
31
0
0
LINE
8
DOORS
10
2380.000
20
-5360.000
30
0
11
2490.000
21
-5490.000
31
0
0
LINE
8
DOORS
10
2630.000
20
-5250.000
30
0
11
3140.000
21
-5640.000
31
0
0
LINE
8
DOORS
10
2420.000
20
-4600.000
30
0
11
2590.000
21
-4730.000
31
0
0
LINE
8
DOORS
10
2290.000
20
-4590.000
30
0
11
2380.000
21
-4730.000
31
0
0
LINE
8
DOORS
10
1420.000
20
-4580.000
30
0
11
1550.000
21
-4680.000
31
0
0
LINE
8
DOORS
10
1420.000
20
-4530.000
30
0
11
1550.000
21
-4700.000
31
0
0
LINE
8
DOORS
10
6480.000
20
-4470.000
30
0
11
6570.000
21
-4600.000
31
0
0
LINE
8
DOORS
10
6360.000
20
-4470.000
30
0
11
6440.000
21
-4590.000
31
0
0
LINE
8
DOORS
10
6480.000
20
-4460.000
30
0
11
6570.000
21
-4600.000
31
0
0
LINE
8
DOORS
10
7660.000
20
-4430.000
30
0
11
7770.000
21
-4550.000
31
0
0
LINE
8
DOORS
10
2450.000
20
-4400.000
30
0
11
2570.000
21
-4550.000
31
0
0
LINE
8
DOORS
10
2310.000
20
-4400.000
30
0
11
2430.000
21
-4610.000
31
0
0
LINE
8
DOORS
10
1430.000
20
-4380.000
30
0
11
1550.000
21
-4520.000
31
0
0
LINE
8
DOORS
10
7660.000
20
-4300.000
30
0
11
7790.000
21
-4560.000
31
0
0
LINE
8
DOORS
10
6490.000
20
-4270.000
30
0
11
6590.000
21
-4420.000
31
0
0
LINE
8
DOORS
10
6470.000
20
-4270.000
30
0
11
6550.000
21
-4350.000
31
0
0
LINE
8
DOORS
10
6350.000
20
-4270.000
30
0
11
6460.000
21
-4420.000
31
0
0
LINE
8
DOORS
10
4450.000
20
-4090.000
30
0
11
4540.000
21
-4220.000
31
0
0
LINE
8
DOORS
10
4370.000
20
-4090.000
30
0
11
4570.000
21
-4220.000
31
0
0
LINE
8
DOORS
10
4250.000
20
-4090.000
30
0
11
4330.000
21
-4220.000
31
0
0
LINE
8
DOORS
10
2890.000
20
-3900.000
30
0
11
3110.000
21
-4180.000
31
0
0
LINE
8
DOORS
10
1780.000
20
-3890.000
30
0
11
3160.000
21
-5180.000
31
0
0
LINE
8
DOORS
10
4360.000
20
-3880.000
30
0
11
4460.000
21
-4030.000
31
0
0
LINE
8
DOORS
10
4210.000
20
-3880.000
30
0
11
4330.000
21
-4020.000
31
0
0
LINE
8
DOORS
10
4340.000
20
-3880.000
30
0
11
4460.000
21
-4030.000
31
0
0
LINE
8
DOORS
10
4210.000
20
-3880.000
30
0
11
4340.000
21
-4020.000
31
0
0
LINE
8
DOORS
10
1210.000
20
-3840.000
30
0
11
1310.000
21
-3970.000
31
0
0
LINE
8
DOORS
10
1200.000
20
-3670.000
30
0
11
1330.000
21
-3890.000
31
0
0
LINE
8
DOORS
10
5510.000
20
-3620.000
30
0
11
5740.000
21
-3890.000
31
0
0
LINE
8
DOORS
10
4740.000
20
-3610.000
30
0
11
4830.000
21
-3700.000
31
0
0
LINE
8
DOORS
10
4370.000
20
-3610.000
30
0
11
4480.000
21
-3700.000
31
0
0
LINE
8
DOORS
10
1880.000
20
-3610.000
30
0
11
2060.000
21
-3700.000
31
0
0
LINE
8
DOORS
10
5180.000
20
-3590.000
30
0
11
5260.000
21
-3690.000
31
0
0
LINE
8
DOORS
10
5170.000
20
-3590.000
30
0
11
5260.000
21
-3690.000
31
0
0
LINE
8
DOORS
10
2310.000
20
-3590.000
30
0
11
2420.000
21
-3680.000
31
0
0
LINE
8
DOORS
10
4890.000
20
-3560.000
30
0
11
5060.000
21
-3710.000
31
0
0
LINE
8
DOORS
10
4800.000
20
-3560.000
30
0
11
4970.000
21
-3720.000
31
0
0
LINE
8
DOORS
10
4300.000
20
-3560.000
30
0
11
4410.000
21
-3720.000
31
0
0
LINE
8
DOORS
10
4050.000
20
-3560.000
30
0
11
4190.000
21
-3720.000
31
0
0
LINE
8
DOORS
10
3870.000
20
-3560.000
30
0
11
3980.000
21
-3720.000
31
0
0
LINE
8
DOORS
10
3730.000
20
-3560.000
30
0
11
3870.000
21
-3720.000
31
0
0
LINE
8
DOORS
10
3600.000
20
-3560.000
30
0
11
3720.000
21
-3720.000
31
0
0
LINE
8
DOORS
10
3870.000
20
-3560.000
30
0
11
4040.000
21
-3730.000
31
0
0
LINE
8
DOORS
10
3570.000
20
-3550.000
30
0
11
3870.000
21
-3730.000
31
0
0
LINE
8
DOORS
10
6610.000
20
-3320.000
30
0
11
6720.000
21
-3410.000
31
0
0
LINE
8
DOORS
10
6740.000
20
-3310.000
30
0
11
6860.000
21
-3390.000
31
0
0
LINE
8
DOORS
10
1860.000
20
-3310.000
30
0
11
2030.000
21
-3440.000
31
0
0
LINE
8
DOORS
10
7660.000
20
-3270.000
30
0
11
7790.000
21
-3390.000
31
0
0
LINE
8
DOORS
10
7900.000
20
-3260.000
30
0
11
8020.000
21
-3480.000
31
0
0
LINE
8
DOORS
10
1420.000
20
-3230.000
30
0
11
1550.000
21
-3320.000
31
0
0
LINE
8
DOORS
10
1780.000
20
-3180.000
30
0
11
2580.000
21
-3850.000
31
0
0
LINE
8
DOORS
10
7650.000
20
-3160.000
30
0
11
7780.000
21
-3310.000
31
0
0
LINE
8
DOORS
10
6610.000
20
-3160.000
30
0
11
6720.000
21
-3240.000
31
0
0
LINE
8
DOORS
10
6740.000
20
-3150.000
30
0
11
6830.000
21
-3290.000
31
0
0
LINE
8
DOORS
10
3700.000
20
-3140.000
30
0
11
4050.000
21
-3320.000
31
0
0
LINE
8
DOORS
10
3820.000
20
-3060.000
30
0
11
4450.000
21
-3460.000
31
0
0
LINE
8
DOORS
10
4920.000
20
-3040.000
30
0
11
5440.000
21
-3430.000
31
0
0
LINE
8
DOORS
10
4110.000
20
-3040.000
30
0
11
4560.000
21
-3280.000
31
0
0
LINE
8
DOORS
10
1430.000
20
-3010.000
30
0
11
1550.000
21
-3170.000
31
0
0
LINE
8
DOORS
10
2850.000
20
-2980.000
30
0
11
3020.000
21
-3110.000
31
0
0
LINE
8
DOORS
10
2390.000
20
-2950.000
30
0
11
2500.000
21
-3140.000
31
0
0
LINE
8
DOORS
10
3190.000
20
-2910.000
30
0
11
3300.000
21
-3010.000
31
0
0
LINE
8
DOORS
10
2850.000
20
-2910.000
30
0
11
2930.000
21
-3010.000
31
0
0
LINE
8
DOORS
10
1780.000
20
-2920.000
30
0
11
2620.000
21
-3850.000
31
0
0
LINE
8
DOORS
10
3100.000
20
-2900.000
30
0
11
3210.000
21
-3010.000
31
0
0
LINE
8
DOORS
10
3010.000
20
-2900.000
30
0
11
3120.000
21
-3010.000
31
0
0
LINE
8
DOORS
10
3610.000
20
-2870.000
30
0
11
3720.000
21
-2980.000
31
0
0
LINE
8
DOORS
10
3280.000
20
-2820.000
30
0
11
3390.000
21
-2940.000
31
0
0
LINE
8
DOORS
10
2850.000
20
-2820.000
30
0
11
2930.000
21
-2920.000
31
0
0
LINE
8
DOORS
10
2900.000
20
-2800.000
30
0
11
3020.000
21
-2940.000
31
0
0
LINE
8
DOORS
10
3630.000
20
-2750.000
30
0
11
3740.000
21
-2990.000
31
0
0
LINE
8
DOORS
10
3610.000
20
-2750.000
30
0
11
3740.000
21
-2990.000
31
0
0
LINE
8
DOORS
10
2920.000
20
-2730.000
30
0
11
3110.000
21
-3020.000
31
0
0
LINE
8
DOORS
10
6920.000
20
-2700.000
30
0
11
7020.000
21
-2800.000
31
0
0
LINE
8
DOORS
10
5590.000
20
-2700.000
30
0
11
5710.000
21
-2840.000
31
0
0
LINE
8
DOORS
10
6830.000
20
-2690.000
30
0
11
7050.000
21
-2960.000
31
0
0
LINE
8
DOORS
10
5500.000
20
-2690.000
30
0
11
5720.000
21
-2960.000
31
0
0
LINE
8
DOORS
10
4520.000
20
-2660.000
30
0
11
4600.000
21
-2770.000
31
0
0
LINE
8
DOORS
10
4430.000
20
-2670.000
30
0
11
4510.000
21
-2790.000
31
0
0
LINE
8
DOORS
10
4300.000
20
-2670.000
30
0
11
4440.000
21
-2810.000
31
0
0
LINE
8
DOORS
10
4520.000
20
-2660.000
30
0
11
4610.000
21
-2800.000
31
0
0
LINE
8
DOORS
10
2850.000
20
-2630.000
30
0
11
3020.000
21
-2830.000
31
0
0
LINE
8
DOORS
10
7160.000
20
-2620.000
30
0
11
7430.000
21
-2860.000
31
0
0
LINE
8
DOORS
10
4410.000
20
-2560.000
30
0
11
4530.000
21
-2650.000
31
0
0
LINE
8
DOORS
10
3100.000
20
-2540.000
30
0
11
3390.000
21
-2740.000
31
0
0
LINE
8
DOORS
10
3190.000
20
-2530.000
30
0
11
3290.000
21
-2650.000
31
0
0
LINE
8
DOORS
10
2840.000
20
-2480.000
30
0
11
3480.000
21
-3110.000
31
0
0
LINE
8
DOORS
10
2620.000
20
-2480.000
30
0
11
3480.000
21
-3110.000
31
0
0
LINE
8
DOORS
10
7190.000
20
-2390.000
30
0
11
7340.000
21
-2550.000
31
0
0
LINE
8
DOORS
10
4180.000
20
-2340.000
30
0
11
4320.000
21
-2450.000
31
0
0
LINE
8
DOORS
10
5950.000
20
-2310.000
30
0
11
6040.000
21
-2440.000
31
0
0
LINE
8
DOORS
10
6160.000
20
-2310.000
30
0
11
6240.000
21
-2430.000
31
0
0
LINE
8
DOORS
10
4510.000
20
-2300.000
30
0
11
4630.000
21
-2420.000
31
0
0
LINE
8
DOORS
10
4320.000
20
-2310.000
30
0
11
4400.000
21
-2390.000
31
0
0
LINE
8
DOORS
10
5950.000
20
-2300.000
30
0
11
6040.000
21
-2440.000
31
0
0
LINE
8
DOORS
10
4510.000
20
-2300.000
30
0
11
4630.000
21
-2450.000
31
0
0
LINE
8
DOORS
10
4280.000
20
-2300.000
30
0
11
4550.000
21
-2620.000
31
0
0
LINE
8
DOORS
10
6120.000
20
-2180.000
30
0
11
6230.000
21
-2270.000
31
0
0
LINE
8
DOORS
10
3200.000
20
-2160.000
30
0
11
3320.000
21
-2300.000
31
0
0
LINE
8
DOORS
10
3190.000
20
-2150.000
30
0
11
3410.000
21
-2420.000
31
0
0
LINE
8
DOORS
10
2420.000
20
-2140.000
30
0
11
2540.000
21
-2270.000
31
0
0
LINE
8
DOORS
10
5980.000
20
-2120.000
30
0
11
6090.000
21
-2270.000
31
0
0
LINE
8
DOORS
10
2420.000
20
-2120.000
30
0
11
2690.000
21
-2340.000
31
0
0
LINE
8
DOORS
10
5970.000
20
-2110.000
30
0
11
6070.000
21
-2210.000
31
0
0
LINE
8
DOORS
10
6100.000
20
-2090.000
30
0
11
6230.000
21
-2270.000
31
0
0
LINE
8
DOORS
10
5970.000
20
-2090.000
30
0
11
6090.000
21
-2290.000
31
0
0
LINE
8
DOORS
10
3130.000
20
-2010.000
30
0
11
3230.000
21
-2100.000
31
0
0
LINE
8
DOORS
10
3130.000
20
-1950.000
30
0
11
3230.000
21
-2100.000
31
0
0
LINE
8
DOORS
10
2980.000
20
-1940.000
30
0
11
3100.000
21
-2060.000
31
0
0
LINE
8
DOORS
10
3780.000
20
-1920.000
30
0
11
4140.000
21
-2170.000
31
0
0
LINE
8
DOORS
10
1420.000
20
-1920.000
30
0
11
1550.000
21
-2150.000
31
0
0
LINE
8
DOORS
10
7300.000
20
-1800.000
30
0
11
7380.000
21
-1960.000
31
0
0
LINE
8
DOORS
10
3950.000
20
-1710.000
30
0
11
4160.000
21
-1890.000
31
0
0
LINE
8
DOORS
10
7260.000
20
-1660.000
30
0
11
7420.000
21
-1840.000
31
0
0
LINE
8
DOORS
10
6780.000
20
-1660.000
30
0
11
7430.000
21
-2970.000
31
0
0
LINE
8
DOORS
10
7240.000
20
-1660.000
30
0
11
7440.000
21
-2100.000
31
0
0
LINE
8
DOORS
10
6780.000
20
-1660.000
30
0
11
7430.000
21
-3010.000
31
0
0
LINE
8
DOORS
10
6020.000
20
-1410.000
30
0
11
6120.000
21
-1500.000
31
0
0
LINE
8
DOORS
10
6010.000
20
-1410.000
30
0
11
6120.000
21
-1540.000
31
0
0
LINE
8
DOORS
10
6150.000
20
-1400.000
30
0
11
6260.000
21
-1550.000
31
0
0
LINE
8
DOORS
10
5870.000
20
-1390.000
30
0
11
6000.000
21
-1550.000
31
0
0
LINE
8
DOORS
10
6270.000
20
-1360.000
30
0
11
6500.000
21
-1590.000
31
0
0
LINE
8
DOORS
10
4750.000
20
-1260.000
30
0
11
4940.000
21
-1480.000
31
0
0
LINE
8
DOORS
10
3200.000
20
-1260.000
30
0
11
3310.000
21
-1370.000
31
0
0
LINE
8
DOORS
10
3960.000
20
-1250.000
30
0
11
4150.000
21
-1460.000
31
0
0
LINE
8
DOORS
10
3570.000
20
-1250.000
30
0
11
3950.000
21
-1480.000
31
0
0
LINE
8
DOORS
10
4520.000
20
-1180.000
30
0
11
4600.000
21
-1290.000
31
0
0
LINE
8
DOORS
10
4390.000
20
-1180.000
30
0
11
4500.000
21
-1270.000
31
0
0
LINE
8
DOORS
10
4240.000
20
-1180.000
30
0
11
4320.000
21
-1270.000
31
0
0
LINE
8
DOORS
10
4520.000
20
-1180.000
30
0
11
4650.000
21
-1320.000
31
0
0
LINE
8
DOORS
10
4370.000
20
-1180.000
30
0
11
4510.000
21
-1310.000
31
0
0
LINE
8
DOORS
10
3200.000
20
-1170.000
30
0
11
3470.000
21
-1390.000
31
0
0
LINE
8
DOORS
10
4230.000
20
-1170.000
30
0
11
4370.000
21
-1320.000
31
0
0
LINE
8
DOORS
10
7680.000
20
-1130.000
30
0
11
7790.000
21
-1230.000
31
0
0
LINE
8
DOORS
10
5150.000
20
-1080.000
30
0
11
5340.000
21
-1470.000
31
0
0
LINE
8
DOORS
10
4160.000
20
-1080.000
30
0
11
4940.000
21
-1480.000
31
0
0
LINE
8
DOORS
10
3960.000
20
-1080.000
30
0
11
4150.000
21
-1270.000
31
0
0
LINE
8
DOORS
10
3530.000
20
-950.000
30
0
11
3700.000
21
-1080.000
31
0
0
LINE
8
DOORS
10
5150.000
20
-880.000
30
0
11
5340.000
21
-1070.000
31
0
0
LINE
8
DOORS
10
4950.000
20
-880.000
30
0
11
5140.000
21
-1090.000
31
0
0
LINE
8
DOORS
10
4160.000
20
-880.000
30
0
11
4350.000
21
-1070.000
31
0
0
LINE
8
DOORS
10
3960.000
20
-880.000
30
0
11
4150.000
21
-1070.000
31
0
0
LINE
8
DOORS
10
3530.000
20
-860.000
30
0
11
3950.000
21
-1270.000
31
0
0
LINE
8
DOORS
10
3530.000
20
-770.000
30
0
11
3700.000
21
-910.000
31
0
0
LINE
8
DOORS
10
3520.000
20
-770.000
30
0
11
3700.000
21
-1080.000
31
0
0
LINE
8
DOORS
10
6880.000
20
-420.000
30
0
11
6970.000
21
-530.000
31
0
0
LINE
8
DOORS
10
4360.000
20
-410.000
30
0
11
4500.000
21
-530.000
31
0
0
LINE
8
DOORS
10
2250.000
20
-410.000
30
0
11
2330.000
21
-500.000
31
0
0
LINE
8
DOORS
10
7090.000
20
-410.000
30
0
11
7210.000
21
-530.000
31
0
0
LINE
8
DOORS
10
6990.000
20
-410.000
30
0
11
7070.000
21
-540.000
31
0
0
LINE
8
DOORS
10
5990.000
20
-410.000
30
0
11
6190.000
21
-540.000
31
0
0
LINE
8
DOORS
10
4260.000
20
-410.000
30
0
11
4580.000
21
-560.000
31
0
0
LINE
8
DOORS
10
2380.000
20
-410.000
30
0
11
2490.000
21
-540.000
31
0
0
LINE
8
DOORS
10
2190.000
20
-410.000
30
0
11
2390.000
21
-540.000
31
0
0
LINE
8
DOORS
10
5890.000
20
-400.000
30
0
11
6090.000
21
-560.000
31
0
0
LINE
8
DOORS
10
3220.000
20
-400.000
30
0
11
3380.000
21
-540.000
31
0
0
LINE
8
DOORS
10
4460.000
20
-160.000
30
0
11
4760.000
21
-310.000
31
0
0
LINE
8
WINDOWS
10
4400.000
20
-6440.000
30
0
11
4700.000
21
-6560.000
31
0
0
LINE
8
WINDOWS
10
5520.000
20
-5440.000
30
0
11
6150.000
21
-5670.000
31
0
0
LINE
8
WINDOWS
10
1780.000
20
-5230.000
30
0
11
3160.000
21
-5670.000
31
0
0
LINE
8
WINDOWS
10
2280.000
20
-3740.000
30
0
11
2570.000
21
-3820.000
31
0
0
LINE
8
WINDOWS
10
4050.000
20
-3550.000
30
0
11
5400.000
21
-3720.000
31
0
0
LINE
8
WINDOWS
10
1790.000
20
-3160.000
30
0
11
2420.000
21
-3290.000
31
0
0
LINE
8
WINDOWS
10
3600.000
20
-3130.000
30
0
11
3690.000
21
-3430.000
31
0
0
LINE
8
WINDOWS
10
5090.000
20
-3040.000
30
0
11
5180.000
21
-3430.000
31
0
0
LINE
8
WINDOWS
10
6050.000
20
-3010.000
30
0
11
7430.000
21
-3570.000
31
0
0
LINE
8
WINDOWS
10
1930.000
20
-2960.000
30
0
11
2480.000
21
-3130.000
31
0
0
LINE
8
WINDOWS
10
1930.000
20
-2950.000
30
0
11
2500.000
21
-3150.000
31
0
0
LINE
8
WINDOWS
10
1780.000
20
-2920.000
30
0
11
2580.000
21
-3170.000
31
0
0
LINE
8
WINDOWS
10
2670.000
20
-2700.000
30
0
11
2770.000
21
-2930.000
31
0
0
LINE
8
WINDOWS
10
2620.000
20
-2480.000
30
0
11
2840.000
21
-3110.000
31
0
0
LINE
8
WINDOWS
10
7310.000
20
-2320.000
30
0
11
7430.000
21
-2640.000
31
0
0
LINE
8
WINDOWS
10
2400.000
20
-2280.000
30
0
11
2690.000
21
-2360.000
31
0
0
LINE
8
WINDOWS
10
7660.000
20
-2140.000
30
0
11
7790.000
21
-2440.000
31
0
0
LINE
8
WINDOWS
10
7340.000
20
-1690.000
30
0
11
7430.000
21
-2070.000
31
0
0
LINE
8
WINDOWS
10
7240.000
20
-1690.000
30
0
11
7330.000
21
-2070.000
31
0
0
LINE
8
WINDOWS
10
5450.000
20
-1340.000
30
0
11
6730.000
21
-1620.000
31
0
0
LINE
8
WINDOWS
10
3750.000
20
-770.000
30
0
11
4970.000
21
-1070.000
31
0
0
LINE
8
WINDOWS
10
6730.000
20
-590.000
30
0
11
7490.000
21
-670.000
31
0
0
ENDSEC
0
EOF
